<svg width="900" height="720" viewBox="0 0 900 720" fill="none" xmlns="http://www.w3.org/2000/svg">
  <defs>
    <linearGradient id="bg" x1="0" y1="0" x2="1" y2="1">
      <stop offset="0%" stop-color="#98d6c1"/>
      <stop offset="50%" stop-color="#8abed9"/>
      <stop offset="100%" stop-color="#6c90d4"/>
    </linearGradient>
    <linearGradient id="pulse" x1="0" y1="0" x2="1" y2="0">
      <stop offset="0%" stop-color="#fef3c7"/>
      <stop offset="100%" stop-color="#fbbf24"/>
    </linearGradient>
    <linearGradient id="watch" x1="0.5" y1="0" x2="0.5" y2="1">
      <stop offset="0%" stop-color="#0f172a"/>
      <stop offset="100%" stop-color="#1f2a44"/>
    </linearGradient>
    <linearGradient id="plate" x1="0" y1="0" x2="1" y2="1">
      <stop offset="0%" stop-color="#ffffff" stop-opacity="0.9"/>
      <stop offset="100%" stop-color="#d9e7ef" stop-opacity="0.95"/>
    </linearGradient>
    <linearGradient id="runner" x1="0" y1="0" x2="1" y2="1">
      <stop offset="0%" stop-color="#5cb8c5"/>
      <stop offset="100%" stop-color="#3f7c96"/>
    </linearGradient>
    <linearGradient id="runnerAccent" x1="0.5" y1="0" x2="0.5" y2="1">
      <stop offset="0%" stop-color="#fcd34d"/>
      <stop offset="100%" stop-color="#f59e0b"/>
    </linearGradient>
    <filter id="shadow" x="-10%" y="-10%" width="120%" height="120%">
      <feDropShadow dx="0" dy="20" stdDeviation="25" flood-color="#0f172a" flood-opacity="0.2"/>
    </filter>
  </defs>
  <rect width="900" height="720" rx="48" fill="url(#bg)"/>
  <g filter="url(#shadow)">
    <rect x="80" y="110" width="420" height="500" rx="36" fill="url(#plate)"/>
    <rect x="115" y="150" width="350" height="130" rx="24" fill="#fff" opacity="0.9"/>
    <text x="140" y="195" font-family="Inter, 'Segoe UI', Arial" font-size="26" fill="#0f1829" font-weight="600">Today’s Recovery</text>
    <text x="140" y="235" font-family="Inter, 'Segoe UI', Arial" font-size="18" fill="#5f738f">Resting heart rate</text>
    <path d="M140 260 H190 L205 235 L225 285 L245 245 L255 260 H310" stroke="#f97316" stroke-width="6" stroke-linecap="round" stroke-linejoin="round"/>
    <rect x="115" y="310" width="350" height="130" rx="24" fill="#fff" opacity="0.9"/>
    <text x="140" y="355" font-family="Inter, 'Segoe UI', Arial" font-size="26" fill="#0f1829" font-weight="600">Macro balance</text>
    <text x="140" y="395" font-family="Inter, 'Segoe UI', Arial" font-size="18" fill="#5f738f">Protein, carbs &amp; fats</text>
    <circle cx="270" cy="375" r="45" fill="none" stroke="#fcd34d" stroke-width="10" stroke-dasharray="240 40"/>
    <circle cx="270" cy="375" r="30" fill="none" stroke="#3f7c96" stroke-width="8" stroke-dasharray="160 40"/>
    <rect x="115" y="470" width="350" height="100" rx="24" fill="#fff" opacity="0.9"/>
    <text x="140" y="515" font-family="Inter, 'Segoe UI', Arial" font-size="24" fill="#0f1829" font-weight="600">Meditation streak</text>
    <text x="140" y="550" font-family="Inter, 'Segoe UI', Arial" font-size="18" fill="#5f738f">12 mindful sessions</text>
  </g>
  <g filter="url(#shadow)">
    <rect x="520" y="120" width="280" height="480" rx="60" fill="url(#watch)"/>
    <rect x="540" y="170" width="240" height="380" rx="40" fill="#0b1222"/>
    <text x="560" y="230" font-family="Inter, 'Segoe UI', Arial" font-size="42" fill="#f0f9ff" font-weight="600">08:45</text>
    <text x="560" y="270" font-family="Inter, 'Segoe UI', Arial" font-size="20" fill="#9fbad6">Morning Flow</text>
    <path d="M560 320 h50 l20 -40 l30 80 l25 -50 l18 30 h40" stroke="url(#pulse)" stroke-width="8" stroke-linecap="round" stroke-linejoin="round"/>
    <circle cx="640" cy="395" r="70" fill="#111a2d" stroke="#1f2a44" stroke-width="6"/>
    <path d="M640 330 a65 65 0 1 1 0 130" stroke="url(#pulse)" stroke-width="12" fill="none" stroke-linecap="round"/>
    <text x="620" y="402" text-anchor="middle" font-family="Inter, 'Segoe UI', Arial" font-size="30" fill="#f8fafc">78</text>
    <text x="642" y="430" font-family="Inter, 'Segoe UI', Arial" font-size="16" fill="#9fbad6">bpm</text>
    <rect x="540" y="470" width="240" height="60" rx="30" fill="#111a2d" stroke="#1f2a44" stroke-width="3"/>
    <text x="660" y="507" text-anchor="middle" font-family="Inter, 'Segoe UI', Arial" font-size="20" fill="#f0f9ff">Start Session</text>
  </g>
  <g filter="url(#shadow)">
    <path d="M460 545 C500 480 570 470 600 480 L630 520 C650 550 640 590 600 600 L520 620 Z" fill="url(#runner)"/>
    <circle cx="610" cy="470" r="36" fill="url(#runnerAccent)"/>
    <path d="M620 425 c40 15 65 45 55 90" stroke="#f59e0b" stroke-width="8" stroke-linecap="round"/>
  </g>
  <text x="120" y="80" font-family="Inter, 'Segoe UI', Arial" font-size="42" fill="#113049" font-weight="600">
    Health &amp; Fitness Journey
  </text>
  <text x="120" y="110" font-family="Inter, 'Segoe UI', Arial" font-size="20" fill="#25435c">
    Balanced training, mindful fueling, and calming recovery.
  </text>
</svg>
